<svg width="524" height="260" viewBox="0 0 524 260" fill="none" xmlns="http://www.w3.org/2000/svg">
<g clip-path="url(#clip0_38_61)">
<path fill-rule="evenodd" clip-rule="evenodd" d="M366.833 151.718L311.175 135.101L301.615 112.436L299.927 124.168L277.665 110.688L286.345 101.21L273.396 70.6257L323.693 107.773L326.195 126.785L366.833 151.718ZM91.5745 126.715L90.7905 127.457L88.9955 126.51L91.5745 126.715ZM383.37 192.653C356.515 190.616 329.134 182.717 300.662 167.534C274.343 153.497 246.379 143.421 217.702 137.306L243.1 120.385L217.063 82.1425L234.665 61.9797L223.663 36.9477L173.792 59.1979L224.213 13.4812L393.018 146.987L390.577 158.537L398.444 156.589L389.486 163.699L386.857 176.145L385.614 182.031L394.916 179.013L384.051 189.423L383.37 192.653ZM410.474 191.042L401.516 186.315L411.308 187.093L410.474 191.042ZM35.0775 160.689C238.731 112.418 240.949 281.532 396.677 244.621C246.354 310.655 229.478 139.567 35.0775 160.689ZM464.22 140.382L332.941 27.2139L296.27 58.5026L225.131 0.0960693L124.017 95.9573L123.647 94.2029L113.698 90.5748L122.897 91.0517L120.262 78.1846L113.698 75.9075H119.781L113.698 47.1174L108.968 69.51L113.698 68.3246L108.567 71.4076L105.832 84.3514L113.698 82.4042L104.742 89.5133L102.111 101.959L100.867 107.846L110.17 104.828L99.3059 115.24L98.2916 120.039L97.5101 116.339L95.871 108.584L85.9224 104.955L95.1213 105.433L92.4868 92.5654L85.9224 90.2883H92.0049L85.9224 61.4981L81.1914 83.8908L85.9224 82.7054L80.7905 85.7884L78.0563 98.7322L85.9224 96.7858L76.9652 103.893L74.3355 116.339L73.0917 122.227L82.3944 119.209L71.5295 129.62L69.2118 140.589C67.9124 140.928 66.6148 141.279 65.3187 141.633L53.8813 135.596L64.7258 136.458L62.3959 125.426L60.756 117.669L50.8082 114.041L60.0063 114.518L57.3725 101.651L50.8082 99.3741H56.8915L50.8082 70.5846L46.0772 92.9773L50.8082 91.7911L45.6771 94.8749L42.942 107.819L50.8082 105.871L41.851 112.98L39.2221 125.426L37.9783 131.313L47.2802 128.294L36.4161 138.707L33.5749 152.151C22.1856 156.601 11.0104 161.725 0.117676 167.534C51.5399 152.212 95.323 143.182 137.752 144.942L138.763 140.153L144.196 134.947L139.544 136.456L140.166 133.513L141.481 127.29L145.96 123.736L142.027 124.709L143.394 118.238L145.96 116.695L143.595 117.288L145.96 106.092L149.001 120.487H145.96L149.242 121.626L150.559 128.059L145.96 127.821L150.933 129.635L151.753 133.513L152.918 139.029L147.496 138.598L153.497 141.765L154.434 146.204C158.493 146.652 162.546 147.21 166.599 147.874L177.462 137.465L168.161 140.482L169.404 134.595L172.033 122.149L180.991 115.041L173.124 116.988L175.859 104.044L180.991 100.961L176.26 102.147L180.991 79.754L187.073 108.544H180.991L187.555 110.821L190.189 123.688L180.991 123.211L190.938 126.839L192.577 134.595L194.908 145.628L184.062 144.766L196.065 151.1L196.867 154.898C222.846 162.719 249.411 175.341 277.997 193.806C351.925 241.564 469.004 223.49 524.245 156.211C500.587 168.83 477.297 178.828 453.989 185.23L453.584 183.314L447.582 180.147L453.007 180.577L451.84 175.062L451.021 171.184L446.047 169.369L450.647 169.609L449.328 163.173L446.047 162.034H449.089L446.047 147.64L443.681 158.837L446.047 158.244L443.481 159.784L442.114 166.259L446.047 165.285L441.568 168.839L440.254 175.062L439.632 178.004L444.283 176.496L438.85 181.702L437.269 189.189H437.277C436.8 189.285 436.321 189.377 435.844 189.47L435.297 186.874L425.767 181.842L434.379 182.526L432.527 173.766L431.226 167.606L423.326 164.726L430.631 165.104L428.539 154.885L423.326 153.076H428.156L423.326 130.214L419.569 147.997L423.326 147.056L419.25 149.504L417.079 159.783L423.326 158.237L416.213 163.882L414.124 173.766L413.138 178.44L420.525 176.044L411.897 184.312L411.826 184.643L410.031 176.145L408.391 168.388L398.444 164.76L407.643 165.237L405.008 152.371L398.444 150.094H404.527L398.444 121.303L393.713 143.696L398.444 142.509L393.312 145.592L393.045 146.85L349.341 107.623L406.65 114.127L353.479 85.6197L356.595 97.9611L327.809 74.1469L313.116 75.1085L305.072 67.8887L352.01 73.7993L348.344 54.331L464.22 140.382Z" fill="#231F20"/>
</g>
<defs>
<clipPath id="clip0_38_61">
<rect width="524" height="260" fill="white"/>
</clipPath>
</defs>
</svg>
