<svg width="30" height="30" viewBox="0 0 30 30" fill="none" xmlns="http://www.w3.org/2000/svg">
<path d="M21.5625 0H8.4375C3.75 0 0 3.75 0 8.4375V21.5625C0 26.25 3.75 30 8.4375 30H21.5625C26.25 30 30 26.25 30 21.5625V8.4375C30 3.75 26.25 0 21.5625 0Z" fill="white"/>
<path d="M17.8123 11.2505H23.4373C23.9998 11.2505 24.3748 10.8755 24.3748 10.313C24.3748 9.75049 23.9998 9.37549 23.4373 9.37549H17.8123C17.2498 9.37549 16.8748 9.75049 16.8748 10.313C16.8748 10.8755 17.2498 11.2505 17.8123 11.2505Z" fill="black"/>
<path d="M26.2501 17.813C26.2501 14.7192 23.7189 12.188 20.6251 12.188C17.5314 12.188 15.0001 14.7192 15.0001 17.813C15.0001 20.9067 17.5314 23.438 20.6251 23.438C21.9376 23.438 23.1564 22.9692 24.1876 22.1255C24.7501 21.6567 25.1251 21.188 25.5001 20.6255C25.7814 20.1567 25.5939 19.5942 25.1251 19.313C24.6564 19.0317 24.0939 19.2192 23.8126 19.688C23.6251 20.063 23.2501 20.438 22.9689 20.7192C22.3126 21.2817 21.4689 21.563 20.6251 21.563C18.8439 21.563 17.4376 20.3442 16.9689 18.7505H25.3126C25.8751 18.7505 26.2501 18.3755 26.2501 17.813ZM16.9689 16.8755C17.3439 15.2817 18.8439 14.063 20.6251 14.063C22.4064 14.063 23.8126 15.2817 24.2814 16.8755H16.9689Z" fill="black"/>
<path d="M14.0625 11.7192C14.0625 9.37549 12.1875 7.50049 9.84375 7.50049H4.6875C4.125 7.50049 3.75 7.87549 3.75 8.43799V15.0005V22.5005C3.75 23.063 4.125 23.438 4.6875 23.438H9.375C12 23.438 14.0625 21.3755 14.0625 18.7505C14.0625 17.2505 13.4063 16.0317 12.2813 15.0942C13.4063 14.3442 14.0625 13.1255 14.0625 11.7192ZM9.375 21.563H5.625V15.938H9.375C10.9688 15.938 12.1875 17.1567 12.1875 18.7505C12.1875 20.3442 10.9688 21.563 9.375 21.563ZM9.84375 14.063H9.375H5.625V9.37549H9.84375C11.1563 9.37549 12.1875 10.4067 12.1875 11.7192C12.1875 13.0317 11.1563 14.063 9.84375 14.063Z" fill="black"/>
</svg>
