<svg width="38" height="38" viewBox="0 0 38 38" fill="none" xmlns="http://www.w3.org/2000/svg">
<path fill-rule="evenodd" clip-rule="evenodd" d="M19 28.5C24.2467 28.5 28.5 24.2467 28.5 19C28.5 13.7533 24.2467 9.5 19 9.5C13.7533 9.5 9.5 13.7533 9.5 19C9.5 24.2467 13.7533 28.5 19 28.5ZM19 25.3333C22.4977 25.3333 25.3333 22.4977 25.3333 19C25.3333 15.5022 22.4977 12.6667 19 12.6667C15.5022 12.6667 12.6667 15.5022 12.6667 19C12.6667 22.4977 15.5022 25.3333 19 25.3333Z" fill="white"/>
<path d="M28.5 7.9165C27.6255 7.9165 26.9166 8.62539 26.9166 9.49984C26.9166 10.3743 27.6255 11.0832 28.5 11.0832C29.3744 11.0832 30.0833 10.3743 30.0833 9.49984C30.0833 8.62539 29.3744 7.9165 28.5 7.9165Z" fill="white"/>
<path fill-rule="evenodd" clip-rule="evenodd" d="M2.61881 6.77059C1.58337 8.80275 1.58337 11.463 1.58337 16.7835V21.2168C1.58337 26.5373 1.58337 29.1976 2.61881 31.2297C3.52961 33.0173 4.98292 34.4706 6.77047 35.3813C8.80263 36.4168 11.4629 36.4168 16.7834 36.4168H21.2167C26.5372 36.4168 29.1975 36.4168 31.2295 35.3813C33.0171 34.4706 34.4705 33.0173 35.3812 31.2297C36.4167 29.1976 36.4167 26.5373 36.4167 21.2168V16.7835C36.4167 11.463 36.4167 8.80275 35.3812 6.77059C34.4705 4.98304 33.0171 3.52973 31.2295 2.61893C29.1975 1.5835 26.5372 1.5835 21.2167 1.5835H16.7834C11.4629 1.5835 8.80263 1.5835 6.77047 2.61893C4.98292 3.52973 3.52961 4.98304 2.61881 6.77059ZM21.2167 4.75016H16.7834C14.0709 4.75016 12.2269 4.75263 10.8017 4.86907C9.41334 4.9825 8.70337 5.1881 8.2081 5.44045C7.01641 6.04766 6.04753 7.01653 5.44033 8.20823C5.18797 8.70349 4.98238 9.41346 4.86895 10.8018C4.75251 12.2271 4.75004 14.071 4.75004 16.7835V21.2168C4.75004 23.9294 4.75251 25.7732 4.86895 27.1985C4.98238 28.5869 5.18797 29.2969 5.44033 29.7922C6.04753 30.9838 7.01641 31.9526 8.2081 32.5598C8.70337 32.8122 9.41334 33.0179 10.8017 33.1313C12.2269 33.2476 14.0709 33.2502 16.7834 33.2502H21.2167C23.9293 33.2502 25.7731 33.2476 27.1984 33.1313C28.5868 33.0179 29.2968 32.8122 29.792 32.5598C30.9837 31.9526 31.9525 30.9838 32.5597 29.7922C32.8121 29.2969 33.0178 28.5869 33.1311 27.1985C33.2475 25.7732 33.25 23.9294 33.25 21.2168V16.7835C33.25 14.071 33.2475 12.2271 33.1311 10.8018C33.0178 9.41346 32.8121 8.70349 32.5597 8.20823C31.9525 7.01653 30.9837 6.04766 29.792 5.44045C29.2968 5.1881 28.5868 4.9825 27.1984 4.86907C25.7731 4.75263 23.9293 4.75016 21.2167 4.75016Z" fill="white"/>
</svg>
