<svg width="35" height="35" viewBox="0 0 35 35" fill="none" xmlns="http://www.w3.org/2000/svg">
<g clip-path="url(#clip0_184_9)">
<path d="M15.0851 19.9153L19.3147 24.1448C19.6934 24.5236 20.2756 24.6092 20.7473 24.356L25.8161 21.635C26.191 21.4335 26.6441 21.4432 27.01 21.6606L34.4055 26.0492C34.9332 26.3623 35.1455 27.0172 34.8986 27.5787C34.2667 29.0168 33.1163 31.6527 32.6594 32.8182C32.5633 33.0636 32.4202 33.2884 32.2211 33.4607C27.2923 37.733 17.4861 32.5273 9.98016 25.0214C2.47305 17.5151 -2.73262 7.70885 1.53972 2.78007C1.71238 2.58096 1.93716 2.43785 2.18216 2.34179C3.34727 1.88485 5.98355 0.734516 7.42166 0.102572C7.98322 -0.144373 8.63811 0.0679606 8.95116 0.595683L13.3398 7.99118C13.5568 8.35713 13.5665 8.81018 13.3654 9.18507L10.6444 14.2531C10.3912 14.7248 10.4768 15.307 10.8556 15.6857L15.0851 19.9153Z" fill="white"/>
<path d="M35.0004 19.25H31.5004C31.5004 10.5653 24.4351 3.5 15.7504 3.5V0C26.3648 0 35.0004 8.63567 35.0004 19.25Z" fill="white"/>
<path d="M28.1949 19.2496H24.6949C24.6949 14.3177 20.6827 10.3052 15.7504 10.3052V6.80518C22.6124 6.80518 28.1949 12.3877 28.1949 19.2496Z" fill="white"/>
</g>
<defs>
<clipPath id="clip0_184_9">
<rect width="35" height="35" fill="white"/>
</clipPath>
</defs>
</svg>
