<svg width="53" height="30" viewBox="0 0 53 30" fill="none" xmlns="http://www.w3.org/2000/svg">
<g clip-path="url(#clip0_176_123)">
<path d="M20.0312 4.6875C21.325 4.6875 22.1875 3.8625 22.1875 2.625C22.1875 1.3875 21.325 0.5625 20.0312 0.5625C9.25 0.5625 0.625 8.8125 0.625 19.125C0.625 24.9 5.36875 29.4375 11.4062 29.4375C17.4438 29.4375 22.1875 24.9 22.1875 19.125C22.1875 13.35 17.4438 8.8125 11.4062 8.8125C10.7594 8.8125 9.89688 8.8125 9.25 9.01875C12.0531 6.3375 15.7188 4.6875 20.0312 4.6875Z" fill="black"/>
<path d="M41.5938 8.8125C40.9469 8.8125 40.0844 8.8125 39.4375 9.01875C42.2406 6.3375 45.9062 4.6875 50.2188 4.6875C51.5125 4.6875 52.375 3.8625 52.375 2.625C52.375 1.3875 51.5125 0.5625 50.2188 0.5625C39.4375 0.5625 30.8125 8.8125 30.8125 19.125C30.8125 24.9 35.5563 29.4375 41.5938 29.4375C47.6313 29.4375 52.375 24.9 52.375 19.125C52.375 13.35 47.6313 8.8125 41.5938 8.8125Z" fill="black"/>
</g>
<defs>
<clipPath id="clip0_176_123">
<rect width="53" height="30" fill="white"/>
</clipPath>
</defs>
</svg>
