<svg width="39" height="40" viewBox="0 0 39 40" fill="none" xmlns="http://www.w3.org/2000/svg">
<path d="M26.6525 12.55C26.66 12.55 26.67 12.55 26.68 12.55C26.9412 12.55 27.1837 12.6313 27.3825 12.7713L27.3787 12.7688C27.5237 12.895 27.6212 13.0725 27.645 13.2725V13.2763C27.67 13.4288 27.6837 13.6038 27.6837 13.7825C27.6837 13.8638 27.6812 13.9438 27.675 14.0238V14.0125C27.3937 16.9738 26.1737 24.155 25.5537 27.47C25.2912 28.8738 24.775 29.3438 24.275 29.3888C23.1887 29.49 22.3637 28.6713 21.3112 27.9813C19.6637 26.9 18.7325 26.2275 17.1337 25.1737C15.285 23.9575 16.4837 23.2862 17.5362 22.1937C17.8125 21.9062 22.6012 17.55 22.695 17.155C22.7 17.1313 22.7025 17.105 22.7025 17.0775C22.7025 16.98 22.6662 16.8912 22.6075 16.8237C22.5425 16.7812 22.4612 16.7575 22.3762 16.7575C22.32 16.7575 22.2662 16.7688 22.2162 16.7875L22.2187 16.7863C22.0537 16.8238 19.4221 18.5629 14.3237 22.0038C13.7675 22.4425 13.065 22.72 12.3 22.7525H12.2925C11.2087 22.6213 10.225 22.38 9.29123 22.0363L9.38373 22.0662C8.21123 21.6838 7.27998 21.4825 7.35998 20.835C7.40248 20.4983 7.86664 20.1537 8.75248 19.8013C14.2091 17.4237 17.8479 15.8567 19.6687 15.1C21.6775 14.0338 24.0062 13.1562 26.455 12.5875L26.6512 12.5487L26.6525 12.55ZM18.9125 1.28125C8.53498 1.30625 0.131226 9.725 0.131226 20.1062C0.131226 30.5025 8.55873 38.9313 18.9562 38.9313C29.3537 38.9313 37.7812 30.5037 37.7812 20.1062C37.7812 9.725 29.3775 1.30625 19.0025 1.28125H19C18.9708 1.28125 18.9416 1.28125 18.9125 1.28125Z" fill="white"/>
</svg>
