<svg width="38" height="38" viewBox="0 0 38 38" fill="none" xmlns="http://www.w3.org/2000/svg">
<g clip-path="url(#clip0_192_77)">
<path d="M24.8318 0H13.167C2.52222 0 -0.0012207 2.52344 -0.0012207 13.1682V24.833C-0.0012207 35.4777 2.52222 38.0012 13.167 38.0012H24.8318C35.4765 38.0012 38 35.4777 38 24.833V13.1682C38 2.52344 35.4516 0 24.8318 0ZM30.6767 27.1082H27.9181C26.8731 27.1082 26.5513 26.2794 24.6715 24.3746C23.0387 22.7917 22.3155 22.5815 21.9129 22.5815C21.3441 22.5815 21.1826 22.7418 21.1826 23.522V26.0146C21.1826 26.6831 20.9724 27.0845 19.203 27.0845C16.277 27.0845 13.0304 25.3151 10.754 22.0186C7.3209 17.1879 6.38159 13.5696 6.38159 12.8214C6.38159 12.4189 6.5419 12.0424 7.31497 12.0424H10.0795C10.7789 12.0424 11.0449 12.3643 11.3168 13.1124C12.6837 17.0584 14.9601 20.5152 15.8994 20.5152C16.2462 20.5152 16.4065 20.3549 16.4065 19.4702V15.3947C16.3008 13.5149 15.3116 13.3534 15.3116 12.6861C15.3116 12.3642 15.5776 12.0424 16.0039 12.0424H20.3513C20.9392 12.0424 21.1553 12.3643 21.1553 13.0566V18.5547C21.1553 19.1484 21.4213 19.3586 21.5816 19.3586C21.9283 19.3586 22.2252 19.1484 22.8677 18.5048C24.8532 16.2782 26.2758 12.8452 26.2758 12.8452C26.461 12.4426 26.7828 12.0662 27.4823 12.0662H30.2468C31.0757 12.0662 31.2609 12.4925 31.0757 13.0863C30.7289 14.6941 27.3457 19.4691 27.3457 19.4691C27.0548 19.9512 26.9432 20.1614 27.3457 20.6993C27.6426 21.1019 28.608 21.9367 29.2505 22.6848C30.432 24.0267 31.3405 25.1524 31.5827 25.9314C31.8547 26.7045 31.4533 27.1071 30.6731 27.1071L30.6767 27.1082Z" fill="white"/>
</g>
<defs>
<clipPath id="clip0_192_77">
<rect width="38" height="38" fill="white"/>
</clipPath>
</defs>
</svg>
