<svg width="40" height="40" viewBox="0 0 40 40" fill="none" xmlns="http://www.w3.org/2000/svg">
<path d="M20 0C8.93333 0 0 8.375 0 18.75C0 23 1.46667 27 4.26667 30.25L1.46667 38.25C1.33333 38.75 1.46667 39.25 1.86667 39.625C2 39.875 2.4 40 2.66667 40C2.8 40 3.06667 40 3.2 39.875L12.4 36C14.8 37 17.3333 37.5 20 37.5C31.0667 37.5 40 29.125 40 18.75C40 8.375 31.0667 0 20 0ZM31.6 25.625C31.0667 27.125 29.0667 28.375 27.3333 28.625C26.9333 28.75 26.5333 28.75 26 28.75C24.9333 28.75 23.3333 28.5 20.5333 27.375C17.3333 26.125 14.1333 23.5 11.6 20.125V20C10.8 18.875 9.33333 16.75 9.33333 14.5C9.33333 11.75 10.8 10.375 11.3333 9.75C12 9.125 12.9333 8.75 14 8.75C14.2667 8.75 14.4 8.75 14.6667 8.75C15.6 8.75 16.2667 9 16.9333 10.25L17.4667 11.25C17.8667 12.25 18.4 13.375 18.5333 13.5C18.9333 14.25 18.9333 14.875 18.5333 15.5C18.4 15.875 18.1333 16.125 17.8667 16.375C17.7333 16.625 17.6 16.75 17.4667 16.75C17.3333 16.875 17.3333 16.875 17.2 17C17.6 17.625 18.4 18.75 19.4667 19.625C21.0667 21 22.2667 21.375 22.9333 21.625C23.2 21.375 23.4667 20.875 23.8667 20.5L24 20.25C24.6667 19.375 25.7333 19.125 26.8 19.5C27.3333 19.75 30.2667 21 30.2667 21L30.5333 21.125C30.9333 21.375 31.4667 21.5 31.7333 22C32.2667 23.125 31.8667 24.75 31.6 25.625Z" fill="white"/>
</svg>
